# xmcd
# 
# Track frame offsets:
#     150
#     15806
#     29665
#     46660
#     65387
#     78980
#     94161
#     109444
#     124671
#     141935
#     159084
#     178973
# 
# Disc length: 2660
# 
# Revision: 2
# Processed by: cddbd v1.5.2PL0 Copyright (c) Steve Scherf et al.
# Submitted via: fre:ac v1.0.17
# 
DISCID=950a620c
DTITLE=Kari Tapio - Viimeiseen pisaraan
DYEAR=2009
DGENRE=Country
TTITLE0=Viimeiseen pisaraan
TTITLE1=Langenneet
TTITLE2=Rakkauden veteraani
TTITLE3=Sydänpuoli säätä vasten
TTITLE4=Risti jonka luona kohdataan
TTITLE5=Texaco taksi parturi baari
TTITLE6=Ennen pelkäsin et meet
TTITLE7=Kenelle kellot soi
TTITLE8=Kun kuljen vierellään
TTITLE9=Alumiinitähdet
TTITLE10=Näkymätön kukka
TTITLE11=Suuri voima
EXTD=
EXTT0=
EXTT1=
EXTT2=
EXTT3=
EXTT4=
EXTT5=
EXTT6=
EXTT7=
EXTT8=
EXTT9=
EXTT10=
EXTT11=
PLAYORDER=
